<svg width="43" height="46" viewBox="0 0 43 46" fill="none" xmlns="http://www.w3.org/2000/svg">
<path d="M33.874 45.7116C36.4369 43.5213 38.5434 40.8477 40.073 37.8433C41.6027 34.839 42.5256 31.5628 42.7892 28.2018C43.0527 24.8407 42.6516 21.4607 41.6089 18.2547C40.5661 15.0487 38.9021 12.0794 36.7118 9.51648C34.5216 6.95354 31.8479 4.8471 28.8436 3.31743C25.8393 1.78776 22.563 0.864821 19.202 0.601302C15.841 0.337785 12.461 0.73885 9.25494 1.7816C6.04891 2.82435 3.07966 4.48836 0.516723 6.67863L6.76298 13.9877C8.36608 12.6177 10.2233 11.5769 12.2287 10.9246C14.234 10.2724 16.3482 10.0215 18.4505 10.1864C20.5528 10.3512 22.6021 10.9285 24.4813 11.8853C26.3604 12.8421 28.0328 14.1596 29.4028 15.7627C30.7728 17.3658 31.8136 19.2231 32.4658 21.2284C33.1181 23.2338 33.3689 25.348 33.2041 27.4503C33.0393 29.5526 32.462 31.6018 31.5052 33.481C30.5484 35.3602 29.2308 37.0325 27.6277 38.4025L33.874 45.7116Z" fill="#05B9DE"/>
</svg>
