<svg width="15" height="15" viewBox="0 0 15 15" fill="none" xmlns="http://www.w3.org/2000/svg">
<path d="M15 11.1833V14.1301C15 14.5676 14.6617 14.9306 14.2254 14.9614C13.8609 14.9872 13.5636 15 13.3333 15C5.9695 15 0 9.0305 0 1.66667C0 1.43642 0.012875 1.13906 0.038625 0.774583C0.069475 0.338233 0.43245 0 0.869883 0H3.81675C4.03065 0 4.2098 0.162017 4.23127 0.374833C4.25056 0.565892 4.26848 0.719283 4.28506 0.835017C4.45362 2.01227 4.79794 3.1328 5.29058 4.16919C5.36966 4.33554 5.31809 4.53466 5.16821 4.64172L3.36962 5.9265C4.4646 8.48425 6.51575 10.5354 9.0735 11.6304L10.3559 9.83492C10.4643 9.68325 10.6658 9.63108 10.8342 9.711C11.8705 10.2032 12.9909 10.5472 14.168 10.7153C14.283 10.7318 14.4354 10.7496 14.6252 10.7687C14.838 10.7902 15 10.9694 15 11.1833Z" fill="white"/>
</svg>
