<svg width="50" height="48" viewBox="0 0 50 48" fill="none" xmlns="http://www.w3.org/2000/svg">
<path d="M0.479686 37.9441C2.90648 40.6999 5.8523 42.9506 9.14894 44.5679C12.4456 46.1852 16.0285 47.1373 19.6931 47.3699C23.3577 47.6025 27.0322 47.111 30.5069 45.9235C33.9816 44.736 37.1883 42.8758 39.9441 40.449C42.6998 38.0222 44.9506 35.0764 46.5679 31.7797C48.1851 28.4831 49.1373 24.9002 49.3699 21.2356C49.6025 17.571 49.111 13.8964 47.9235 10.4218C46.736 6.94709 44.8758 3.74034 42.449 0.984602L34.5901 7.90539C36.108 9.62909 37.2716 11.6349 38.0144 13.8083C38.7571 15.9817 39.0645 18.2801 38.9191 20.5722C38.7736 22.8644 38.178 25.1055 37.1664 27.1675C36.1548 29.2296 34.747 31.0722 33.0233 32.5901C31.2996 34.1081 29.2938 35.2716 27.1204 36.0144C24.947 36.7572 22.6486 37.0646 20.3564 36.9191C18.0642 36.7736 15.8232 36.1781 13.7611 35.1665C11.6991 34.1549 9.85651 32.747 8.33857 31.0233L0.479686 37.9441Z" fill="#05B9DE"/>
</svg>
