<svg width="66" height="66" viewBox="0 0 66 66" fill="none" xmlns="http://www.w3.org/2000/svg">
<rect width="66" height="66" rx="8" fill="#CDF6FF"/>
<path d="M34.5451 28.3636C34.5451 28.3636 36.0906 25.2727 36.0906 22.1818C36.0906 19.0909 32.9996 16 32.9996 16C32.9996 16 29.9087 19.0909 29.9087 22.1818C29.9087 25.2727 31.4542 28.3636 31.4542 28.3636M32.9996 37.6364C34.2293 37.6364 35.4086 37.1479 36.278 36.2784C37.1475 35.4089 37.636 34.2296 37.636 33C37.636 31.7704 37.1475 30.5911 36.278 29.7216C35.4086 28.8521 34.2293 28.3636 32.9996 28.3636C31.77 28.3636 30.5907 28.8521 29.7212 29.7216C28.8518 30.5911 28.3633 31.7704 28.3633 33C28.3633 34.2296 28.8518 35.4089 29.7212 36.2784C30.5907 37.1479 31.77 37.6364 32.9996 37.6364Z" stroke="#05B9DE" stroke-width="2.25" stroke-miterlimit="1.5" stroke-linecap="round" stroke-linejoin="round"/>
<path d="M28.3636 31.4546C28.3636 31.4546 25.2727 29.9091 22.1818 29.9091C19.0909 29.9091 16 33 16 33C16 33 19.0909 36.0909 22.1818 36.0909C25.2727 36.0909 28.3636 34.5455 28.3636 34.5455M34.5455 37.6364C34.5455 37.6364 36.0909 40.7273 36.0909 43.8182C36.0909 46.9091 33 50 33 50C33 50 29.9091 46.9091 29.9091 43.8182C29.9091 40.7273 31.4545 37.6364 31.4545 37.6364M37.6364 31.4546C37.6364 31.4546 40.7273 29.9091 43.8182 29.9091C46.9091 29.9091 50 33 50 33C50 33 46.9091 36.0909 43.8182 36.0909C40.7273 36.0909 37.6364 34.5455 37.6364 34.5455M30.8147 28.6295C30.8147 28.6295 29.7221 25.35 27.5353 23.1648C25.35 20.9795 20.9795 20.9795 20.9795 20.9795C20.9795 20.9795 20.9795 25.35 23.1647 27.5369C25.35 29.7221 28.6295 30.8148 28.6295 30.8148M28.6295 35.1853C28.6295 35.1853 25.35 36.2779 23.1647 38.4648C20.9795 40.65 20.9795 45.0206 20.9795 45.0206C20.9795 45.0206 25.35 45.0206 27.5353 42.8353C29.7221 40.65 30.8147 37.3706 30.8147 37.3706M37.3721 35.1853C37.3721 35.1853 40.6485 36.2779 42.8353 38.4648C45.0205 40.65 45.0205 45.0206 45.0205 45.0206C45.0205 45.0206 40.65 45.0206 38.4647 42.8353C36.2779 40.65 35.1853 37.3706 35.1853 37.3706M35.1853 28.6295C35.1853 28.6295 36.2779 25.35 38.4647 23.1648C40.65 20.9795 45.0205 20.9795 45.0205 20.9795C45.0205 20.9795 45.0205 25.35 42.8353 27.5369C40.65 29.7221 37.3705 30.8148 37.3705 30.8148" stroke="#05B9DE" stroke-width="2.25" stroke-miterlimit="1.5" stroke-linecap="round" stroke-linejoin="round"/>
</svg>
