<svg width="15" height="13" viewBox="0 0 15 13" fill="none" xmlns="http://www.w3.org/2000/svg">
<path d="M13.8158 8.55948C12.8905 8.55948 11.9842 8.43427 11.1253 8.18863C10.706 8.06342 10.23 8.15989 9.95448 8.40348L8.25159 9.51806C6.29764 8.61423 5.04711 7.53111 4.01844 5.85L5.26974 4.40906C5.58474 4.13606 5.69765 3.73647 5.56265 3.36221C5.27685 2.613 5.1316 1.82684 5.1316 1.02632C5.1316 0.460463 4.60029 0 3.94738 0H1.18421C0.531304 0 0 0.460463 0 1.02632C0 7.62826 6.19816 13 13.8158 13C14.4687 13 15 12.5395 15 11.9737V9.5858C15 9.01994 14.4687 8.55948 13.8158 8.55948Z" fill="currentColor"/>
</svg>