<svg width="66" height="66" viewBox="0 0 66 66" fill="none" xmlns="http://www.w3.org/2000/svg">
<rect width="66" height="66" rx="8" fill="#FFECD7"/>
<path d="M33.5 50C23.8348 50 16 42.1652 16 32.5C16 22.8348 23.8348 15 33.5 15C43.1652 15 51 22.8348 51 32.5C51 42.1652 43.1652 50 33.5 50Z" stroke="#FFA945" stroke-width="2.25" stroke-linecap="round" stroke-linejoin="round"/>
<path d="M41 37C41 37 38.5 40 33.5 40C28.5 40 26 37 26 37" stroke="#FFA945" stroke-width="2.25" stroke-linecap="round" stroke-linejoin="round"/>
<path d="M40.125 27C39.8929 27 39.6704 26.8946 39.5063 26.7071C39.3422 26.5196 39.25 26.2652 39.25 26C39.25 25.7348 39.3422 25.4804 39.5063 25.2929C39.6704 25.1054 39.8929 25 40.125 25C40.3571 25 40.5796 25.1054 40.7437 25.2929C40.9078 25.4804 41 25.7348 41 26C41 26.2652 40.9078 26.5196 40.7437 26.7071C40.5796 26.8946 40.3571 27 40.125 27ZM27.875 27C27.6429 27 27.4204 26.8946 27.2563 26.7071C27.0922 26.5196 27 26.2652 27 26C27 25.7348 27.0922 25.4804 27.2563 25.2929C27.4204 25.1054 27.6429 25 27.875 25C28.1071 25 28.3296 25.1054 28.4937 25.2929C28.6578 25.4804 28.75 25.7348 28.75 26C28.75 26.2652 28.6578 26.5196 28.4937 26.7071C28.3296 26.8946 28.1071 27 27.875 27Z" stroke="#FFA945" stroke-width="2.25" stroke-linecap="round" stroke-linejoin="round"/>
</svg>
