<svg width="66" height="66" viewBox="0 0 66 66" fill="none" xmlns="http://www.w3.org/2000/svg">
<rect width="66" height="66" rx="8" fill="#FFE9E9"/>
<path d="M24.7838 19.1892H20.4595C19.542 19.1892 18.662 19.5537 18.0133 20.2025C17.3645 20.8512 17 21.7312 17 22.6487V46.8649C17 47.7824 17.3645 48.6623 18.0133 49.3111C18.662 49.9599 19.542 50.3243 20.4595 50.3243H30.8378M36.8919 19.1892H41.2162C42.1337 19.1892 43.0137 19.5537 43.6624 20.2025C44.3112 20.8512 44.6757 21.7312 44.6757 22.6487V38.2162" fill="#FFE9E9"/>
<path d="M24.7838 19.1892H20.4595C19.542 19.1892 18.662 19.5537 18.0133 20.2025C17.3645 20.8512 17 21.7312 17 22.6487V46.8649C17 47.7824 17.3645 48.6623 18.0133 49.3111C18.662 49.9599 19.542 50.3243 20.4595 50.3243H30.8378M36.8919 19.1892H41.2162C42.1337 19.1892 43.0137 19.5537 43.6624 20.2025C44.3112 20.8512 44.6757 21.7312 44.6757 22.6487V38.2162" stroke="#FE6A6A" stroke-width="2.25" stroke-linecap="round"/>
<path d="M23.9189 23.3405V20.0541C23.9189 19.8247 24.0101 19.6047 24.1723 19.4425C24.3345 19.2803 24.5544 19.1892 24.7838 19.1892C25.2612 19.1892 25.6556 18.8017 25.7386 18.3312C25.9946 16.8575 26.9875 14 30.8379 14C34.6882 14 35.6811 16.8575 35.9371 18.3312C36.0201 18.8017 36.4145 19.1892 36.8919 19.1892C37.1213 19.1892 37.3413 19.2803 37.5035 19.4425C37.6657 19.6047 37.7568 19.8247 37.7568 20.0541V23.3405C37.7568 23.6158 37.6474 23.8798 37.4528 24.0744C37.2582 24.269 36.9942 24.3784 36.7189 24.3784H24.9568C24.6815 24.3784 24.4176 24.269 24.2229 24.0744C24.0283 23.8798 23.9189 23.6158 23.9189 23.3405Z" stroke="#FE6A6A" stroke-width="2.25" stroke-linecap="round"/>
<path d="M36.8916 47.7297L40.3511 51.1892L48.9997 42.5405" fill="#FFE9E9"/>
<path d="M36.8916 47.7297L40.3511 51.1892L48.9997 42.5405" stroke="#FE6A6A" stroke-width="2.25" stroke-linecap="round" stroke-linejoin="round"/>
<rect x="24.5693" y="31.6677" width="13.1381" height="2.02959" rx="1.01479" fill="#FE6A6A" stroke="#FE6A6A"/>
<rect x="24.5693" y="38.7367" width="10.1085" height="2.02959" rx="1.01479" fill="#FE6A6A" stroke="#FE6A6A"/>
</svg>
