<svg width="66" height="66" viewBox="0 0 66 66" fill="none" xmlns="http://www.w3.org/2000/svg">
<rect width="66" height="66" rx="8" fill="#D2FFDC"/>
<path d="M36.2308 43.2H29.7708C29.5003 43.2 29.2408 43.0926 29.0495 42.9013C28.8582 42.71 28.7508 42.4506 28.7508 42.18V38.27C28.7508 37.9995 28.6433 37.7401 28.452 37.5488C28.2607 37.3575 28.0013 37.25 27.7308 37.25H23.8208C23.5503 37.25 23.2908 37.1426 23.0995 36.9513C22.9082 36.76 22.8008 36.5006 22.8008 36.23V29.77C22.8008 29.4995 22.9082 29.2401 23.0995 29.0488C23.2908 28.8575 23.5503 28.75 23.8208 28.75H27.7308C28.0013 28.75 28.2607 28.6426 28.452 28.4513C28.6433 28.26 28.7508 28.0006 28.7508 27.73V23.82C28.7508 23.5495 28.8582 23.2901 29.0495 23.0988C29.2408 22.9075 29.5003 22.8 29.7708 22.8H36.2308C36.5013 22.8 36.7607 22.9075 36.952 23.0988C37.1433 23.2901 37.2508 23.5495 37.2508 23.82V27.73C37.2508 28.0006 37.3582 28.26 37.5495 28.4513C37.7408 28.6426 38.0003 28.75 38.2708 28.75H42.1808C42.4513 28.75 42.7107 28.8575 42.902 29.0488C43.0933 29.2401 43.2008 29.4995 43.2008 29.77V36.23C43.2008 36.5006 43.0933 36.76 42.902 36.9513C42.7107 37.1426 42.4513 37.25 42.1808 37.25H38.2708C38.0003 37.25 37.7408 37.3575 37.5495 37.5488C37.3582 37.7401 37.2508 37.9995 37.2508 38.27V42.18C37.2508 42.4506 37.1433 42.71 36.952 42.9013C36.7607 43.0926 36.5013 43.2 36.2308 43.2Z" stroke="#19D078" stroke-width="2.25"/>
<path d="M33 50C42.3891 50 50 42.3891 50 33C50 23.6109 42.3891 16 33 16C23.6109 16 16 23.6109 16 33C16 42.3891 23.6109 50 33 50Z" stroke="#19D078" stroke-width="2.25" stroke-linecap="round" stroke-linejoin="round"/>
</svg>
