<svg width="66" height="66" viewBox="0 0 66 66" fill="none" xmlns="http://www.w3.org/2000/svg">
<rect width="66" height="66" rx="8" fill="#EBEDFF"/>
<path d="M33 32.0588C35.0039 32.0588 36.9256 31.2655 38.3426 29.8535C39.7595 28.4415 40.5556 26.5263 40.5556 24.5294C40.5556 22.5325 39.7595 20.6174 38.3426 19.2053C36.9256 17.7933 35.0039 17 33 17C30.9961 17 29.0744 17.7933 27.6574 19.2053C26.2405 20.6174 25.4444 22.5325 25.4444 24.5294C25.4444 26.5263 26.2405 28.4415 27.6574 29.8535C29.0744 31.2655 30.9961 32.0588 33 32.0588ZM23.5556 49C25.5594 49 27.4812 48.2067 28.8981 46.7947C30.3151 45.3826 31.1111 43.4675 31.1111 41.4706C31.1111 39.4737 30.3151 37.5585 28.8981 36.1465C27.4812 34.7345 25.5594 33.9412 23.5556 33.9412C21.5517 33.9412 19.6299 34.7345 18.213 36.1465C16.796 37.5585 16 39.4737 16 41.4706C16 43.4675 16.796 45.3826 18.213 46.7947C19.6299 48.2067 21.5517 49 23.5556 49ZM42.4444 49C44.4483 49 46.3701 48.2067 47.787 46.7947C49.204 45.3826 50 43.4675 50 41.4706C50 39.4737 49.204 37.5585 47.787 36.1465C46.3701 34.7345 44.4483 33.9412 42.4444 33.9412C40.4406 33.9412 38.5188 34.7345 37.1019 36.1465C35.6849 37.5585 34.8889 39.4737 34.8889 41.4706C34.8889 43.4675 35.6849 45.3826 37.1019 46.7947C38.5188 48.2067 40.4406 49 42.4444 49Z" stroke="#7A72E1" stroke-width="2.50833" stroke-linecap="round" stroke-linejoin="round"/>
</svg>
