<svg width="17" height="17" viewBox="0 0 17 17" fill="none" xmlns="http://www.w3.org/2000/svg">
<path fill-rule="evenodd" clip-rule="evenodd" d="M4.96607 0.0508418C5.86736 0.00973566 6.15513 0 8.45002 0C10.7449 0 11.0326 0.00973566 11.9339 0.0508418C12.8333 0.0918724 13.4476 0.234738 13.9851 0.443589C14.5407 0.659534 15.012 0.948485 15.4818 1.41824C15.9515 1.88799 16.2405 2.35927 16.4564 2.91494C16.6653 3.45241 16.8081 4.06666 16.8492 4.96607C16.8903 5.86736 16.9 6.15513 16.9 8.45002C16.9 10.7449 16.8903 11.0326 16.8492 11.9339C16.8081 12.8333 16.6653 13.4476 16.4564 13.9851C16.2405 14.5407 15.9515 15.012 15.4818 15.4818C15.012 15.9515 14.5407 16.2405 13.9851 16.4564C13.4476 16.6653 12.8333 16.8081 11.9339 16.8492C11.0326 16.8903 10.7449 16.9 8.45002 16.9C6.15513 16.9 5.86736 16.8903 4.96607 16.8492C4.06666 16.8081 3.45241 16.6653 2.91491 16.4564C2.35925 16.2405 1.88804 15.9515 1.41826 15.4818C0.94851 15.012 0.65956 14.5407 0.443614 13.9851C0.234712 13.4476 0.0918976 12.8333 0.0508166 11.9339C0.00971051 11.0326 0 10.7449 0 8.45002C0 6.15513 0.00971051 5.86736 0.0508166 4.96607C0.0918976 4.06666 0.234712 3.45241 0.443614 2.91494C0.659534 2.35927 0.948485 1.88799 1.41826 1.41824C1.88801 0.948485 2.35925 0.659534 2.91491 0.443589C3.45241 0.234738 4.06666 0.0918724 4.96607 0.0508418ZM11.8645 1.57179C10.9735 1.53114 10.7062 1.52251 8.45002 1.52251C6.19379 1.52251 5.9265 1.53114 5.03547 1.57179C4.21162 1.60935 3.76418 1.74701 3.46642 1.86273C3.07202 2.01604 2.79051 2.19913 2.49482 2.49484C2.19915 2.79051 2.01604 3.07199 1.86273 3.46645C1.74701 3.76418 1.60938 4.21159 1.57179 5.03547C1.53114 5.9265 1.52251 6.19377 1.52251 8.45C1.52251 10.7062 1.53114 10.9735 1.57179 11.8645C1.60938 12.6884 1.74701 13.1358 1.86273 13.4336C2.01604 13.828 2.19915 14.1095 2.49484 14.4052C2.79051 14.7009 3.07199 14.884 3.46645 15.0373C3.76418 15.153 4.21159 15.2906 5.03547 15.3282C5.9264 15.3689 6.19359 15.3775 8.45 15.3775C10.7064 15.3775 10.9736 15.3689 11.8645 15.3282C12.6884 15.2906 13.1358 15.153 13.4336 15.0373C13.828 14.884 14.1095 14.7009 14.4052 14.4052C14.7009 14.1095 14.884 13.828 15.0373 13.4336C15.153 13.1358 15.2906 12.6884 15.3282 11.8645C15.3689 10.9735 15.3775 10.7062 15.3775 8.45C15.3775 6.19377 15.3689 5.9265 15.3282 5.03547C15.2906 4.21162 15.153 3.76418 15.0373 3.46642C14.884 3.07202 14.7009 2.79051 14.4052 2.49482C14.1095 2.19913 13.828 2.01604 13.4336 1.86273C13.1358 1.74701 12.6884 1.60935 11.8645 1.57179ZM5.66011 8.39018C5.66011 9.93921 6.91584 11.195 8.46492 11.195C10.014 11.195 11.2697 9.93921 11.2697 8.39018C11.2697 6.8411 10.014 5.58537 8.46492 5.58537C6.91584 5.58537 5.66011 6.8411 5.66011 8.39018ZM4.14402 8.39018C4.14402 6.00379 6.07853 4.06928 8.46492 4.06928C10.8513 4.06928 12.7858 6.00379 12.7858 8.39018C12.7858 10.7765 10.8513 12.711 8.46492 12.711C6.07853 12.711 4.14402 10.7765 4.14402 8.39018ZM12.9565 4.90827C13.5142 4.90827 13.9662 4.45624 13.9662 3.89856C13.9662 3.34091 13.5142 2.88882 12.9565 2.88882C12.3989 2.88882 11.9468 3.34091 11.9468 3.89856C11.9468 4.45624 12.3989 4.90827 12.9565 4.90827Z" fill="CurrentColor"/>
</svg>