<svg width="118" height="26" viewBox="0 0 118 26" fill="none" xmlns="http://www.w3.org/2000/svg">
<path d="M31.584 23V5.12H37.416C39.352 5.12 41.032 5.504 42.456 6.272C43.88 7.04 44.984 8.096 45.768 9.44C46.552 10.784 46.944 12.32 46.944 14.048C46.944 15.776 46.552 17.32 45.768 18.68C44.984 20.024 43.88 21.08 42.456 21.848C41.032 22.616 39.352 23 37.416 23H31.584ZM35.304 19.76H37.512C38.68 19.76 39.688 19.528 40.536 19.064C41.384 18.584 42.04 17.92 42.504 17.072C42.984 16.208 43.224 15.2 43.224 14.048C43.224 12.88 42.984 11.872 42.504 11.024C42.04 10.176 41.384 9.52 40.536 9.056C39.688 8.592 38.68 8.36 37.512 8.36H35.304V19.76ZM55.3742 23.288C53.9822 23.288 52.7742 22.984 51.7502 22.376C50.7262 21.752 49.9342 20.92 49.3742 19.88C48.8142 18.84 48.5342 17.688 48.5342 16.424C48.5342 15.112 48.8222 13.944 49.3982 12.92C49.9902 11.896 50.7822 11.088 51.7742 10.496C52.7662 9.904 53.8862 9.608 55.1342 9.608C56.1742 9.608 57.0942 9.776 57.8942 10.112C58.6942 10.432 59.3662 10.888 59.9102 11.48C60.4702 12.072 60.8942 12.76 61.1822 13.544C61.4702 14.312 61.6142 15.152 61.6142 16.064C61.6142 16.32 61.5982 16.576 61.5662 16.832C61.5502 17.072 61.5102 17.28 61.4462 17.456H51.6302V14.816H59.4062L57.7022 16.064C57.8622 15.376 57.8542 14.768 57.6782 14.24C57.5022 13.696 57.1902 13.272 56.7422 12.968C56.3102 12.648 55.7742 12.488 55.1342 12.488C54.5102 12.488 53.9742 12.64 53.5262 12.944C53.0782 13.248 52.7422 13.696 52.5182 14.288C52.2942 14.88 52.2062 15.6 52.2542 16.448C52.1902 17.184 52.2782 17.832 52.5182 18.392C52.7582 18.952 53.1262 19.392 53.6222 19.712C54.1182 20.016 54.7182 20.168 55.4222 20.168C56.0622 20.168 56.6062 20.04 57.0542 19.784C57.5182 19.528 57.8782 19.176 58.1342 18.728L61.0142 20.096C60.7582 20.736 60.3502 21.296 59.7902 21.776C59.2462 22.256 58.5982 22.632 57.8462 22.904C57.0942 23.16 56.2702 23.288 55.3742 23.288ZM63.7341 23V9.896H67.0941V12.488L66.9021 11.912C67.2061 11.128 67.6941 10.552 68.3661 10.184C69.0541 9.8 69.8541 9.608 70.7661 9.608C71.7581 9.608 72.6221 9.816 73.3581 10.232C74.1101 10.648 74.6941 11.232 75.1101 11.984C75.5261 12.72 75.7341 13.584 75.7341 14.576V23H72.1341V15.344C72.1341 14.832 72.0301 14.392 71.8221 14.024C71.6301 13.656 71.3501 13.368 70.9821 13.16C70.6301 12.952 70.2141 12.848 69.7341 12.848C69.2701 12.848 68.8541 12.952 68.4861 13.16C68.1181 13.368 67.8301 13.656 67.6221 14.024C67.4301 14.392 67.3341 14.832 67.3341 15.344V23H63.7341ZM84.4133 23.144C82.8293 23.144 81.5973 22.72 80.7173 21.872C79.8533 21.008 79.4213 19.808 79.4213 18.272V13.016H77.2133V9.896H77.3333C78.0053 9.896 78.5173 9.728 78.8693 9.392C79.2373 9.056 79.4213 8.552 79.4213 7.88V6.92H83.0213V9.896H86.0933V13.016H83.0213V18.032C83.0213 18.48 83.1013 18.856 83.2613 19.16C83.4213 19.448 83.6693 19.664 84.0053 19.808C84.3413 19.952 84.7573 20.024 85.2533 20.024C85.3653 20.024 85.4933 20.016 85.6373 20C85.7813 19.984 85.9333 19.968 86.0933 19.952V23C85.8533 23.032 85.5813 23.064 85.2773 23.096C84.9733 23.128 84.6853 23.144 84.4133 23.144ZM94.5148 23.288C93.1228 23.288 91.9148 22.984 90.8908 22.376C89.8668 21.752 89.0748 20.92 88.5148 19.88C87.9548 18.84 87.6748 17.688 87.6748 16.424C87.6748 15.112 87.9628 13.944 88.5388 12.92C89.1308 11.896 89.9228 11.088 90.9148 10.496C91.9068 9.904 93.0268 9.608 94.2748 9.608C95.3148 9.608 96.2348 9.776 97.0348 10.112C97.8348 10.432 98.5068 10.888 99.0508 11.48C99.6108 12.072 100.035 12.76 100.323 13.544C100.611 14.312 100.755 15.152 100.755 16.064C100.755 16.32 100.739 16.576 100.707 16.832C100.691 17.072 100.651 17.28 100.587 17.456H90.7708V14.816H98.5468L96.8428 16.064C97.0028 15.376 96.9948 14.768 96.8188 14.24C96.6428 13.696 96.3308 13.272 95.8828 12.968C95.4508 12.648 94.9148 12.488 94.2748 12.488C93.6508 12.488 93.1148 12.64 92.6668 12.944C92.2188 13.248 91.8828 13.696 91.6588 14.288C91.4348 14.88 91.3468 15.6 91.3948 16.448C91.3308 17.184 91.4188 17.832 91.6588 18.392C91.8988 18.952 92.2668 19.392 92.7628 19.712C93.2588 20.016 93.8588 20.168 94.5628 20.168C95.2028 20.168 95.7468 20.04 96.1948 19.784C96.6588 19.528 97.0188 19.176 97.2748 18.728L100.155 20.096C99.8988 20.736 99.4908 21.296 98.9308 21.776C98.3868 22.256 97.7388 22.632 96.9868 22.904C96.2348 23.16 95.4108 23.288 94.5148 23.288ZM101.608 23L106.192 16.424L101.584 9.896H105.76L109.216 14.984H107.392L110.848 9.896H115.024L110.416 16.424L114.976 23H110.824L107.44 17.912H109.168L105.784 23H101.608Z" fill="#052E73"/>
<path d="M15.3277 3.69024C10.4763 6.3976 8.5644 4.4829 6.00147 3.69024C-0.248878 1.75716 -0.71341 8.85692 0.592261 11.4403C1.6368 13.5069 2.14663 18.7438 2.27098 21.1039C2.56942 24.5484 4.55413 27.3992 5.34864 25.2181L7.77345 19.4773C9.63692 14.6739 12.0324 17.8827 12.7164 19.4773L14.9062 24.6246C16.7249 28.978 18.1751 21.8134 18.6851 19.4773C19.2429 16.9223 20.1773 12.7798 20.8302 10.1008C21.483 7.42174 20.3782 0.871785 15.3277 3.69024Z" fill="#05B9DE"/>
</svg>
