<svg width="56" height="56" viewBox="0 0 56 56" fill="none" xmlns="http://www.w3.org/2000/svg">
<circle cx="28.0309" cy="27.7857" r="27.5816" fill="white"/>
<path d="M38.2243 31.7451V35.6322C38.2243 36.2093 37.7781 36.6882 37.2026 36.7288C36.7217 36.7628 36.3295 36.7797 36.0258 36.7797C26.312 36.7797 18.4375 28.9052 18.4375 19.1915C18.4375 18.8877 18.4545 18.4955 18.4885 18.0147C18.5291 17.4391 19.008 16.9929 19.585 16.9929H23.4723C23.7544 16.9929 23.9907 17.2066 24.0191 17.4874C24.0445 17.7394 24.0681 17.9417 24.09 18.0944C24.3124 19.6473 24.7666 21.1255 25.4164 22.4926C25.5207 22.712 25.4527 22.9747 25.255 23.1159L22.8824 24.8107C24.3268 28.1847 27.0326 30.8904 30.4065 32.3349L32.0982 29.9664C32.2412 29.7663 32.507 29.6975 32.7291 29.8029C34.0961 30.4522 35.5741 30.9059 37.1268 31.1277C37.2785 31.1495 37.4796 31.1729 37.7299 31.1982C38.0106 31.2266 38.2243 31.4629 38.2243 31.7451Z" fill="#05B9DE"/>
</svg>
