<svg width="66" height="66" viewBox="0 0 66 66" fill="none" xmlns="http://www.w3.org/2000/svg">
<rect width="66" height="66" rx="8" fill="#FFEAFD"/>
<path d="M40.6677 22.2517C40.6675 23.3298 40.2412 24.3641 39.4816 25.1291C37.7329 26.8921 36.0362 28.7304 34.2213 30.4289C34.0186 30.6135 33.7529 30.7133 33.4788 30.7076C33.2048 30.7019 32.9433 30.5913 32.7485 30.3984L27.5204 25.1309C26.7605 24.3654 26.334 23.3304 26.334 22.2517C26.334 21.173 26.7605 20.1381 27.5204 19.3725C27.8996 18.9905 28.3507 18.6873 28.8476 18.4804C29.3445 18.2735 29.8775 18.167 30.4158 18.167C30.954 18.167 31.487 18.2735 31.9839 18.4804C32.4808 18.6873 32.9319 18.9905 33.3111 19.3725L33.501 19.5642L33.6909 19.3725C34.2601 18.7972 34.9877 18.4042 35.781 18.2436C36.5742 18.0831 37.3973 18.1622 38.1455 18.471C38.8936 18.7797 39.533 19.3041 39.9821 19.9774C40.4313 20.6507 40.6699 21.4424 40.6677 22.2517Z" stroke="#EF57E0" stroke-width="2.50833" stroke-linejoin="round"/>
<path d="M44.25 46.8333L51.1013 39.982C51.303 39.7806 51.4164 39.5073 51.4167 39.2223V29.8125C51.4167 29.0997 51.1335 28.4162 50.6295 27.9122C50.1255 27.4081 49.4419 27.125 48.7292 27.125C48.0164 27.125 47.3328 27.4081 46.8288 27.9122C46.3248 28.4162 46.0417 29.0997 46.0417 29.8125V37.875" stroke="#EF57E0" stroke-width="2.50833" stroke-linecap="round" stroke-linejoin="round"/>
<path d="M44.2507 39.6667L45.7879 38.1294C45.8687 38.0488 45.9327 37.953 45.9764 37.8475C46.02 37.742 46.0424 37.629 46.0423 37.5149C46.0421 37.3538 45.997 37.1959 45.9122 37.0589C45.8274 36.9219 45.7062 36.8112 45.5622 36.7391L44.7684 36.3431C44.096 36.0069 43.3349 35.8907 42.5927 36.011C41.8506 36.1312 41.1651 36.4818 40.6333 37.0132L39.0297 38.6167C38.3577 39.2886 37.98 40.1999 37.9798 41.1502V46.8333M22.7507 46.8333L15.8993 39.982C15.6977 39.7806 15.5842 39.5073 15.584 39.2223V29.8125C15.584 29.0997 15.8671 28.4162 16.3711 27.9122C16.8751 27.4081 17.5587 27.125 18.2715 27.125C18.9843 27.125 19.6678 27.4081 20.1718 27.9122C20.6758 28.4162 20.959 29.0997 20.959 29.8125V37.875" stroke="#EF57E0" stroke-width="2.50833" stroke-linecap="round" stroke-linejoin="round"/>
<path d="M22.7507 39.6667L21.2134 38.1294C21.1327 38.0487 21.0687 37.9529 21.0251 37.8475C20.9814 37.742 20.959 37.629 20.959 37.5149C20.959 37.187 21.1453 36.8878 21.4392 36.7391L22.2329 36.3432C22.9053 36.0069 23.6664 35.8907 24.4086 36.011C25.1507 36.1312 25.8362 36.4819 26.368 37.0132L27.9716 38.6168C28.6436 39.2886 29.0213 40.1999 29.0215 41.1502V46.8334" stroke="#EF57E0" stroke-width="2.50833" stroke-linecap="round" stroke-linejoin="round"/>
</svg>
